<svg width="140" height="139" viewBox="0 0 140 139" version="1.1" xmlns="http://www.w3.org/2000/svg" xmlns:xlink="http://www.w3.org/1999/xlink" xmlns:figma="http://www.figma.com/figma/ns">
<title>Group</title>
<desc>Created using Figma</desc>
<g id="Canvas" transform="translate(72 474)" figma:type="canvas">
<g id="Group" style="mix-blend-mode:normal;" figma:type="frame">
<g id="Ellipse" style="mix-blend-mode:normal;" figma:type="ellipse">
<mask id="mask0_outline_ins">
<use xlink:href="#path0_fill" fill="white" transform="translate(-71.5 -474)"/>
</mask>
<g mask="url(#mask0_outline_ins)">
<use xlink:href="#path1_stroke_2x" transform="translate(-71.5 -474)" fill="#5AABE2" style="mix-blend-mode:normal;"/>
</g>
</g>
<g id="b3" style="mix-blend-mode:normal;" figma:type="frame">
<g id="B" style="mix-blend-mode:normal;" figma:type="vector">
<use xlink:href="#path2_fill" transform="translate(-38.5 -430.801)" fill="#3498DB" style="mix-blend-mode:normal;"/>
</g>
<g id="3" style="mix-blend-mode:normal;" figma:type="vector">
<use xlink:href="#path3_fill" transform="translate(16.2291 -446)" fill="#3498DB" style="mix-blend-mode:normal;"/>
</g>
</g>
</g>
</g>
<defs>
<path id="path0_fill" d="M 139 69.5C 139 107.884 107.884 139 69.5 139C 31.1162 139 0 107.884 0 69.5C 0 31.1162 31.1162 0 69.5 0C 107.884 0 139 31.1162 139 69.5Z"/>
<path id="path1_stroke_2x" d="M 134 69.5C 134 105.122 105.122 134 69.5 134L 69.5 144C 110.645 144 144 110.645 144 69.5L 134 69.5ZM 69.5 134C 33.8776 134 5 105.122 5 69.5L -5 69.5C -5 110.645 28.3548 144 69.5 144L 69.5 134ZM 5 69.5C 5 33.8776 33.8776 5 69.5 5L 69.5 -5C 28.3548 -5 -5 28.3548 -5 69.5L 5 69.5ZM 69.5 5C 105.122 5 134 33.8776 134 69.5L 144 69.5C 144 28.3548 110.645 -5 69.5 -5L 69.5 5Z"/>
<path id="path2_fill" d="M 0 59.7082L 5.75963 59.7082L 5.75963 7.48752L 0 7.48752L 0 0L 27.1663 0C 30.3661 0 33.1819 0.447966 35.6137 1.34391C 38.1096 2.23985 40.1894 3.45578 41.8533 4.99168C 43.5812 6.52758 44.8611 8.38346 45.6931 10.5593C 46.589 12.6712 47.037 14.975 47.037 17.4709L 47.037 18.6228C 47.037 20.4787 46.749 22.1746 46.173 23.7105C 45.5971 25.2464 44.7971 26.6223 43.7732 27.8382C 42.7493 29.0541 41.5333 30.1101 40.1254 31.006C 38.7815 31.838 37.3096 32.4779 35.7097 32.9259L 35.7097 34.0778C 38.9095 34.9738 41.5973 36.7016 43.7732 39.2615C 45.9491 41.7573 47.037 44.8291 47.037 48.4769L 47.037 49.6288C 47.037 52.1247 46.589 54.4605 45.6931 56.6364C 44.8611 58.7482 43.5812 60.6041 41.8533 62.204C 40.1894 63.7399 38.1096 64.9558 35.6137 65.8518C 33.1819 66.7477 30.3661 67.1957 27.1663 67.1957L 0 67.1957L 0 59.7082ZM 13.8231 59.7082L 26.5903 59.7082C 30.3661 59.7082 33.4379 58.7802 35.8057 56.9243C 38.1735 55.0045 39.3575 52.3806 39.3575 49.0529L 39.3575 48.4769C 39.3575 45.0211 38.2375 42.3013 35.9977 40.3174C 33.7578 38.2695 30.718 37.2456 26.8783 37.2456L 13.8231 37.2456L 13.8231 59.7082ZM 13.8231 29.7581L 26.8783 29.7581C 30.718 29.7581 33.7578 28.7662 35.9977 26.7823C 38.2375 24.7984 39.3575 22.0786 39.3575 18.6228L 39.3575 18.0468C 39.3575 14.7831 38.1735 12.2232 35.8057 10.3673C 33.4379 8.44746 30.3661 7.48752 26.5903 7.48752L 13.8231 7.48752L 13.8231 29.7581Z"/>
<path id="path3_fill" d="M 6.2636 12.6712L 6.2636 8.49546L 14.4711 3.23979L 14.4711 2.80782L 0.215986 2.80782L 0.215986 0L 17.0629 0L 17.0629 4.6077L 8.85543 9.86337L 8.85543 10.2953L 10.2953 10.2953C 11.2553 10.2953 12.1792 10.4513 13.0672 10.7633C 13.9551 11.0753 14.7351 11.5313 15.407 12.1312C 16.103 12.7312 16.6549 13.4751 17.0629 14.3631C 17.4949 15.227 17.7109 16.235 17.7109 17.3869L 17.7109 18.0348C 17.7109 19.1148 17.4949 20.1227 17.0629 21.0586C 16.6309 21.9946 16.031 22.8105 15.263 23.5065C 14.4951 24.1784 13.5831 24.7184 12.5272 25.1264C 11.4953 25.5104 10.3673 25.7024 9.14341 25.7024C 7.7275 25.7024 6.45559 25.4864 5.32766 25.0544C 4.19973 24.6224 3.23979 24.0345 2.44784 23.2905C 1.65589 22.5226 1.04393 21.6346 0.61196 20.6267C 0.203987 19.5947 0 18.5028 0 17.3509L 0 15.407L 3.02381 15.407L 3.02381 17.1349C 3.02381 18.0468 3.1678 18.8628 3.45578 19.5827C 3.76776 20.2787 4.18773 20.8787 4.7157 21.3826C 5.26766 21.8626 5.91562 22.2346 6.65957 22.4986C 7.40352 22.7625 8.20747 22.8945 9.07142 22.8945C 9.86337 22.8945 10.5953 22.7625 11.2673 22.4986C 11.9632 22.2346 12.5632 21.8746 13.0672 21.4186C 13.5711 20.9387 13.9671 20.3867 14.2551 19.7627C 14.5431 19.1148 14.6871 18.4308 14.6871 17.7109L 14.6871 17.4949C 14.6871 15.983 14.2071 14.807 13.2471 13.9671C 12.2872 13.1032 11.0873 12.6712 9.64738 12.6712L 6.2636 12.6712Z"/>
</defs>
</svg>
